<svg xmlns="http://www.w3.org/2000/svg" width="24" height="24" viewBox="0 0 24 24">
  <g id="Group_4300" data-name="Group 4300" transform="translate(-459 -13)">
    <g id="money_bulk" data-name="money/bulk" transform="translate(459 13)">
      <g id="vuesax_bulk_money" data-name="vuesax/bulk/money">
        <g id="money">
          <path id="Vector" d="M0,0H24V24H0Z" fill="none" opacity="0"/>
          <path id="Vector-2" data-name="Vector" d="M15,17H5c-3,0-5-1.5-5-5V5C0,1.5,2,0,5,0H15c3,0,5,1.5,5,5v7C20,15.5,18,17,15,17Z" transform="translate(2 3.5)" fill="#008bd2" opacity="0.4"/>
          <g id="Group">
            <path id="Vector-3" data-name="Vector" d="M6,3A3,3,0,1,1,3,0,3,3,0,0,1,6,3Z" transform="translate(9 9)" fill="#008bd2"/>
          </g>
          <g id="Group-2" data-name="Group">
            <path id="Vector-4" data-name="Vector" d="M.75,6.5A.755.755,0,0,1,0,5.75v-5A.755.755,0,0,1,.75,0,.755.755,0,0,1,1.5.75v5A.755.755,0,0,1,.75,6.5Z" transform="translate(4.75 8.75)" fill="#008bd2"/>
          </g>
          <g id="Group-3" data-name="Group">
            <path id="Vector-5" data-name="Vector" d="M.75,6.5A.755.755,0,0,1,0,5.75v-5A.755.755,0,0,1,.75,0,.755.755,0,0,1,1.5.75v5A.755.755,0,0,1,.75,6.5Z" transform="translate(17.75 8.75)" fill="#008bd2"/>
          </g>
        </g>
      </g>
    </g>
  </g>
</svg>
